HIERARCHY
ROOT Hips
{
	OFFSET -3.958830 18.904000 13.208200
	CHANNELS 6 Xposition Yposition Zposition Zrotation Yrotation Xrotation 
	JOINT LHipJoint
	{
		OFFSET 0.000000 0.000000 0.000000
		CHANNELS 3 Zrotation Yrotation Xrotation
		JOINT LeftUpLeg
		{
			OFFSET 1.800000 -1.400000 0.085000
			CHANNELS 3 Zrotation Yrotation Xrotation
			JOINT LeftLeg
			{
				OFFSET 2.215000 -6.000000 0.000000
				CHANNELS 3 Zrotation Yrotation Xrotation
				JOINT LeftFoot
				{
					OFFSET 2.500000 -6.900000 0.000000
					CHANNELS 3 Zrotation Yrotation Xrotation
					JOINT LeftToeBase
					{
						OFFSET 0.200000 -0.500000 1.950000
						CHANNELS 3 Zrotation Yrotation Xrotation
						End Site
						{
							OFFSET 0.000000 0.000000 0.000000
						}
					}
				}
			}
		}
	}
	JOINT RHipJoint
	{
		OFFSET 0.000000 0.000000 0.000000
		CHANNELS 3 Zrotation Yrotation Xrotation
		JOINT RightUpLeg
		{
			OFFSET -1.800000 -1.400000 0.085000
			CHANNELS 3 Zrotation Yrotation Xrotation
			JOINT RightLeg
			{
				OFFSET -2.215000 -6.000000 0.000000
				CHANNELS 3 Zrotation Yrotation Xrotation
				JOINT RightFoot
				{
					OFFSET -2.500000 -6.900000 0.000000
					CHANNELS 3 Zrotation Yrotation Xrotation
					JOINT RightToeBase
					{
						OFFSET -0.200000 -0.500000 1.950000
						CHANNELS 3 Zrotation Yrotation Xrotation
						End Site
						{
							OFFSET 0.000000 0.000000 0.000000
						}
					}
				}
			}
		}
	}
	JOINT LowerBack
	{
		OFFSET 0.000000 0.000000 0.000000
		CHANNELS 3 Zrotation Yrotation Xrotation
		JOINT Spine
		{
			OFFSET -0.087000 1.940000 -0.288900
			CHANNELS 3 Zrotation Yrotation Xrotation
			JOINT Spine1
			{
				OFFSET 0.000000 1.950000 0.060000
				CHANNELS 3 Zrotation Yrotation Xrotation
				JOINT Neck
				{
					OFFSET 0.000000 0.000000 0.000000
					CHANNELS 3 Zrotation Yrotation Xrotation
					JOINT Neck1
					{
						OFFSET 0.000000 1.600000 0.340000
						CHANNELS 3 Zrotation Yrotation Xrotation
						JOINT Head
						{
							OFFSET 0.000000 1.667000 -0.240000
							CHANNELS 3 Zrotation Yrotation Xrotation
							End Site
							{
								OFFSET 0.000000 0.000000 0.000000
							}
						}
					}
				}
				JOINT LeftShoulder
				{
					OFFSET 0.000000 0.000000 0.000000
					CHANNELS 3 Zrotation Yrotation Xrotation
					JOINT LeftArm
					{
						OFFSET 2.700000 1.550000 -0.730000
						CHANNELS 3 Zrotation Yrotation Xrotation
						JOINT LeftForeArm
						{
							OFFSET 5.450000 0.000000 0.000000
							CHANNELS 3 Zrotation Yrotation Xrotation
							JOINT LeftHand
							{
								OFFSET 3.450000 0.000000 0.000000
								CHANNELS 3 Zrotation Yrotation Xrotation
								JOINT LeftHandIndex1
								{
									OFFSET 0.750000 0.000000 0.000000
									CHANNELS 3 Zrotation Yrotation Xrotation
									End Site
									{
										OFFSET 0.000000 0.000000 0.000000
									}
								}
							}
						}
					}
				}
				JOINT RightShoulder
				{
					OFFSET 0.000000 0.000000 0.000000
					CHANNELS 3 Zrotation Yrotation Xrotation
					JOINT RightArm
					{
						OFFSET -2.700000 1.550000 -0.730000
						CHANNELS 3 Zrotation Yrotation Xrotation
						JOINT RightForeArm
						{
							OFFSET -5.450000 0.000000 0.000000
							CHANNELS 3 Zrotation Yrotation Xrotation
							JOINT RightHand
							{
								OFFSET -3.450000 0.000000 0.000000
								CHANNELS 3 Zrotation Yrotation Xrotation
								JOINT RightHandIndex1
								{
									OFFSET -0.750000 0.000000 0.000000
									CHANNELS 3 Zrotation Yrotation Xrotation
									End Site
									{
										OFFSET 0.000000 0.000000 0.000000
									}
								}
							}
						}
					}
				}
			}
		}
	}
}
MOTION
Frames: 4
Frame Time: 0.016667
2.473350 17.136290 -2.372710 -1.123654 -8.741422 5.784592 -14.992080 12.549821 4.253409 5.516771 -5.118860 -30.647130 -13.278118 12.847888 38.398881 -0.380326 8.616952 1.860740 0.625850 -0.121310 0.428960 18.451159 -10.596800 3.193510 4.615908 -2.127546 4.649769 3.115767 -5.691337 11.667485 -0.928861 -4.618720 3.239401 0.064130 0.507560 0.453360 -3.957901 -1.401474 -8.503082 18.179987 0.980108 19.512785 -10.347754 6.440077 -6.584763 4.628460 -3.078880 -10.076965 -7.332124 0.556593 36.053950 -7.214280 -0.205770 -19.614780 -19.449120 -0.976726 1.070084 0.657882 11.278186 1.500420 13.249467 2.305774 -0.922542 -4.119096 2.258104 1.249270 0.227960 0.021500 0.501760 8.974968 6.743135 6.810904 8.321491 -2.094902 -5.997266 -33.758844 10.672740 -2.334231 1.683393 -1.460009 -0.540710 0.529390 -0.019810 -0.469460 
2.541440 17.087430 -2.406230 -1.387592 -11.937336 6.455559 -14.973295 12.464223 4.349150 7.363162 -4.700438 -31.986412 -13.472090 13.510263 39.347250 -0.280065 8.901049 1.742969 0.682570 -0.047110 0.449280 18.478280 -10.661401 3.065437 3.782170 -1.765426 3.695164 2.644146 -5.611557 13.006440 -0.919359 -4.610241 3.223937 0.087080 0.487650 0.489740 -4.002108 -1.202230 -8.447107 18.254811 1.196484 19.182552 -10.417147 6.549544 -6.125099 4.598441 -3.532058 -9.991166 -7.728087 1.596617 34.704690 -7.088010 0.911430 -18.855720 -18.307836 -0.265416 1.021601 -0.723292 11.360078 1.217146 14.108548 1.065756 -0.885280 -4.085855 2.387350 1.202430 0.231960 0.039600 0.535090 7.902651 6.455853 6.664912 8.889389 -1.023041 -5.885660 -33.711989 10.233272 -2.378709 1.722456 -1.551360 -0.481410 0.464480 -0.075650 -0.441980 
2.591680 17.038730 -2.430910 -1.118806 -14.347056 7.147110 -15.006439 12.498588 4.402629 8.436000 -4.416340 -32.857226 -12.867736 13.547170 39.738873 -0.232546 8.916752 1.703286 0.710150 0.011110 0.426210 18.438221 -10.694280 2.970686 2.857084 -1.452486 2.748103 2.351910 -5.499919 13.472365 -0.894203 -4.566693 3.217884 0.096270 0.474220 0.543220 -3.874041 -1.227816 -8.429886 16.715036 1.614935 19.301180 -9.746334 6.566108 -7.198158 4.512691 -3.580472 -9.697526 -7.444259 2.419307 33.381741 -6.881880 1.956520 -18.222180 -17.097506 0.949371 0.571330 -1.251987 10.647854 1.057865 14.702899 0.038701 -0.856738 -4.089405 2.516178 1.143980 0.248360 0.053060 0.554590 7.001634 5.469132 6.421061 10.163749 -1.003908 -5.715981 -34.292606 11.744353 -2.707764 1.721312 -1.633393 -0.409290 0.383140 -0.097790 -0.406740 
2.633240 16.996310 -2.448350 -1.142007 -16.091617 7.279103 -15.007689 12.669053 4.311889 9.257647 -4.061093 -32.653589 -10.970088 12.748104 39.568031 -0.368827 8.719977 1.781813 0.667550 -0.051870 0.428890 18.409547 -10.749012 2.951152 2.330573 -1.318033 2.372982 2.048786 -5.448461 13.890335 -0.852760 -4.535783 3.239343 0.091280 0.524020 0.517910 -3.798112 -1.356266 -8.385644 16.096619 1.632486 19.828261 -9.640692 6.501458 -8.705205 4.439278 -3.506580 -9.066955 -7.236069 2.980398 33.302490 -7.215190 2.592970 -17.909940 -17.080746 2.024018 -0.329373 0.917909 9.300969 1.364833 13.114069 -1.069701 -1.042968 -4.125837 2.428370 1.160190 0.279930 0.016280 0.533590 7.106604 4.232022 6.079466 10.287592 -1.617050 -5.505289 -34.537146 14.012455 -3.014648 1.662321 -1.582413 -0.474400 0.442670 -0.060940 -0.433840 
